<mxfile host="app.diagrams.net" modified="2022-11-15T18:16:45.260Z" agent="5.0 (Macintosh; Intel Mac OS X 10_15_7) AppleWebKit/537.36 (KHTML, like Gecko) Chrome/107.0.0.0 Safari/537.36" etag="69s6p0PoCe-TnOOipBzE" version="20.4.1" type="github">
  <diagram id="C5RBs43oDa-KdzZeNtuy" name="Page-1">
    <mxGraphModel dx="1243" dy="454" grid="1" gridSize="10" guides="1" tooltips="1" connect="1" arrows="1" fold="1" page="1" pageScale="1" pageWidth="827" pageHeight="1169" math="0" shadow="0">
      <root>
        <mxCell id="WIyWlLk6GJQsqaUBKTNV-0" />
        <mxCell id="WIyWlLk6GJQsqaUBKTNV-1" parent="WIyWlLk6GJQsqaUBKTNV-0" />
        <mxCell id="O_bnEDBHN98x8-tNYGby-24" value="" style="rounded=1;whiteSpace=wrap;html=1;fillStyle=auto;strokeWidth=1;fontFamily=Times New Roman;" vertex="1" parent="WIyWlLk6GJQsqaUBKTNV-1">
          <mxGeometry x="-10" width="530" height="550" as="geometry" />
        </mxCell>
        <mxCell id="O_bnEDBHN98x8-tNYGby-6" style="edgeStyle=orthogonalEdgeStyle;rounded=0;orthogonalLoop=1;jettySize=auto;html=1;exitX=0.5;exitY=1;exitDx=0;exitDy=0;exitPerimeter=0;entryX=0.5;entryY=0;entryDx=0;entryDy=0;fontFamily=Times New Roman;" edge="1" parent="WIyWlLk6GJQsqaUBKTNV-1" source="O_bnEDBHN98x8-tNYGby-3" target="O_bnEDBHN98x8-tNYGby-4">
          <mxGeometry relative="1" as="geometry" />
        </mxCell>
        <mxCell id="O_bnEDBHN98x8-tNYGby-3" value="Original Problem Statement" style="strokeWidth=1;html=1;shape=mxgraph.flowchart.start_1;whiteSpace=wrap;fontFamily=Times New Roman;verticalAlign=middle;fillColor=#F1B82D;fillStyle=auto;opacity=50;" vertex="1" parent="WIyWlLk6GJQsqaUBKTNV-1">
          <mxGeometry x="60" y="100" width="130" height="50" as="geometry" />
        </mxCell>
        <mxCell id="O_bnEDBHN98x8-tNYGby-9" style="edgeStyle=orthogonalEdgeStyle;rounded=0;orthogonalLoop=1;jettySize=auto;html=1;exitX=0.5;exitY=1;exitDx=0;exitDy=0;entryX=0.5;entryY=0;entryDx=0;entryDy=0;fontFamily=Times New Roman;" edge="1" parent="WIyWlLk6GJQsqaUBKTNV-1" source="O_bnEDBHN98x8-tNYGby-4" target="O_bnEDBHN98x8-tNYGby-7">
          <mxGeometry relative="1" as="geometry" />
        </mxCell>
        <mxCell id="O_bnEDBHN98x8-tNYGby-4" value="Identification of objectives, constraints, and assumptions" style="rounded=1;whiteSpace=wrap;html=1;absoluteArcSize=1;arcSize=14;strokeWidth=1;fontFamily=Times New Roman;fillColor=#F1B82D;opacity=50;" vertex="1" parent="WIyWlLk6GJQsqaUBKTNV-1">
          <mxGeometry x="52.5" y="200" width="145" height="40" as="geometry" />
        </mxCell>
        <mxCell id="O_bnEDBHN98x8-tNYGby-11" style="edgeStyle=orthogonalEdgeStyle;rounded=0;orthogonalLoop=1;jettySize=auto;html=1;exitX=0.5;exitY=1;exitDx=0;exitDy=0;entryX=0.5;entryY=0;entryDx=0;entryDy=0;fontFamily=Times New Roman;" edge="1" parent="WIyWlLk6GJQsqaUBKTNV-1" source="O_bnEDBHN98x8-tNYGby-7" target="O_bnEDBHN98x8-tNYGby-10">
          <mxGeometry relative="1" as="geometry" />
        </mxCell>
        <mxCell id="O_bnEDBHN98x8-tNYGby-7" value="&lt;p style=&quot;line-height: 0;&quot;&gt;Written Abstract:&lt;br&gt;&lt;/p&gt;&lt;ul&gt;&lt;li style=&quot;text-align: left;&quot;&gt;Context&lt;/li&gt;&lt;li style=&quot;text-align: left;&quot;&gt;Need&lt;/li&gt;&lt;li style=&quot;text-align: left;&quot;&gt;Task&lt;/li&gt;&lt;/ul&gt;&lt;p&gt;&lt;/p&gt;" style="rounded=1;whiteSpace=wrap;html=1;absoluteArcSize=1;arcSize=14;strokeWidth=1;verticalAlign=middle;fontFamily=Times New Roman;spacingTop=1;fillColor=#F1B82D;opacity=50;" vertex="1" parent="WIyWlLk6GJQsqaUBKTNV-1">
          <mxGeometry x="70" y="280" width="110" height="70" as="geometry" />
        </mxCell>
        <mxCell id="O_bnEDBHN98x8-tNYGby-14" style="edgeStyle=orthogonalEdgeStyle;rounded=0;orthogonalLoop=1;jettySize=auto;html=1;exitX=1;exitY=0.5;exitDx=0;exitDy=0;entryX=0;entryY=0.5;entryDx=0;entryDy=0;fontFamily=Times New Roman;" edge="1" parent="WIyWlLk6GJQsqaUBKTNV-1" source="O_bnEDBHN98x8-tNYGby-10" target="O_bnEDBHN98x8-tNYGby-12">
          <mxGeometry relative="1" as="geometry" />
        </mxCell>
        <mxCell id="O_bnEDBHN98x8-tNYGby-10" value="&lt;p&gt;&lt;font&gt;Function identification with&amp;nbsp;enumeration method&lt;/font&gt;&lt;/p&gt;" style="rounded=1;whiteSpace=wrap;html=1;fontFamily=Times New Roman;fillColor=#F1B82D;opacity=50;" vertex="1" parent="WIyWlLk6GJQsqaUBKTNV-1">
          <mxGeometry x="65" y="390" width="120" height="60" as="geometry" />
        </mxCell>
        <mxCell id="O_bnEDBHN98x8-tNYGby-17" style="edgeStyle=orthogonalEdgeStyle;rounded=0;orthogonalLoop=1;jettySize=auto;html=1;exitX=0.5;exitY=0;exitDx=0;exitDy=0;fontFamily=Times New Roman;" edge="1" parent="WIyWlLk6GJQsqaUBKTNV-1" source="O_bnEDBHN98x8-tNYGby-12" target="O_bnEDBHN98x8-tNYGby-16">
          <mxGeometry relative="1" as="geometry" />
        </mxCell>
        <mxCell id="O_bnEDBHN98x8-tNYGby-12" value="Design Selection" style="ellipse;whiteSpace=wrap;html=1;strokeWidth=1;fontFamily=Times New Roman;fillColor=#F1B82D;opacity=50;" vertex="1" parent="WIyWlLk6GJQsqaUBKTNV-1">
          <mxGeometry x="240" y="400" width="120" height="40" as="geometry" />
        </mxCell>
        <mxCell id="O_bnEDBHN98x8-tNYGby-20" style="edgeStyle=orthogonalEdgeStyle;rounded=0;orthogonalLoop=1;jettySize=auto;html=1;exitX=0.5;exitY=0;exitDx=0;exitDy=0;entryX=0.5;entryY=1;entryDx=0;entryDy=0;fontFamily=Times New Roman;" edge="1" parent="WIyWlLk6GJQsqaUBKTNV-1" source="O_bnEDBHN98x8-tNYGby-16" target="O_bnEDBHN98x8-tNYGby-18">
          <mxGeometry relative="1" as="geometry" />
        </mxCell>
        <mxCell id="O_bnEDBHN98x8-tNYGby-16" value="Technical Dawing" style="rounded=1;whiteSpace=wrap;html=1;strokeWidth=1;fontFamily=Times New Roman;fillColor=#F1B82D;opacity=50;" vertex="1" parent="WIyWlLk6GJQsqaUBKTNV-1">
          <mxGeometry x="240" y="330" width="120" height="30" as="geometry" />
        </mxCell>
        <mxCell id="O_bnEDBHN98x8-tNYGby-23" style="edgeStyle=orthogonalEdgeStyle;rounded=0;orthogonalLoop=1;jettySize=auto;html=1;exitX=0.5;exitY=0;exitDx=0;exitDy=0;entryX=0.5;entryY=1;entryDx=0;entryDy=0;fontFamily=Times New Roman;" edge="1" parent="WIyWlLk6GJQsqaUBKTNV-1" source="O_bnEDBHN98x8-tNYGby-18" target="O_bnEDBHN98x8-tNYGby-22">
          <mxGeometry relative="1" as="geometry" />
        </mxCell>
        <mxCell id="O_bnEDBHN98x8-tNYGby-18" value="&lt;p style=&quot;text-align: left; line-height: 0;&quot;&gt;&amp;nbsp; &amp;nbsp; &amp;nbsp;Calculations:&lt;br&gt;&lt;/p&gt;&lt;ul&gt;&lt;li style=&quot;text-align: left;&quot;&gt;Spring Constant&lt;/li&gt;&lt;li style=&quot;text-align: left;&quot;&gt;Motor Force&lt;/li&gt;&lt;li style=&quot;text-align: left;&quot;&gt;Displacement of spring&lt;/li&gt;&lt;/ul&gt;&lt;p&gt;&lt;/p&gt;" style="rounded=1;whiteSpace=wrap;html=1;strokeWidth=1;fontFamily=Times New Roman;spacingTop=3;fillColor=#F1B82D;opacity=50;" vertex="1" parent="WIyWlLk6GJQsqaUBKTNV-1">
          <mxGeometry x="230" y="190" width="140" height="80" as="geometry" />
        </mxCell>
        <mxCell id="O_bnEDBHN98x8-tNYGby-22" value="Final Design Concept" style="ellipse;whiteSpace=wrap;html=1;strokeWidth=1;fontFamily=Times New Roman;fillColor=#F1B82D;opacity=50;" vertex="1" parent="WIyWlLk6GJQsqaUBKTNV-1">
          <mxGeometry x="240" y="100" width="120" height="50" as="geometry" />
        </mxCell>
      </root>
    </mxGraphModel>
  </diagram>
</mxfile>
